<svg width="526" height="552" viewBox="0 0 526 552" fill="none" xmlns="http://www.w3.org/2000/svg">
<path d="M354.136 38.6272C369.748 43.6997 384.208 51.7976 396.69 62.4585C409.172 73.1193 419.433 86.1343 426.885 100.76C434.337 115.386 438.836 131.337 440.124 147.702C441.412 164.066 439.464 180.525 434.391 196.136C429.319 211.748 421.221 226.208 410.56 238.69C399.899 251.172 386.884 261.433 372.258 268.885C357.632 276.337 341.681 280.836 325.317 282.124C308.952 283.412 292.494 281.464 276.882 276.391L315.509 157.509L354.136 38.6272Z" fill="#676767"/>
<path d="M73.4728 130.127C83.1214 116.847 95.2913 105.597 109.288 97.0204C123.284 88.4434 138.832 82.7073 155.046 80.1394C171.259 77.5715 187.819 78.2221 203.781 82.0542C219.742 85.8862 234.793 92.8246 248.073 102.473C261.353 112.122 272.603 124.292 281.18 138.288C289.757 152.284 295.493 167.833 298.061 184.046C300.629 200.259 299.978 216.819 296.146 232.781C292.314 248.743 285.376 263.793 275.727 277.074L174.6 203.6L73.4728 130.127Z" fill="#676767"/>
<path d="M73.4738 424.073C63.8251 410.793 56.8867 395.743 53.0547 379.781C49.2226 363.819 48.5719 347.259 51.1398 331.046C53.7078 314.833 59.4439 299.284 68.0209 285.288C76.5978 271.292 87.8475 259.122 101.128 249.473C114.408 239.824 129.459 232.886 145.42 229.054C161.382 225.222 177.942 224.571 194.155 227.139C210.368 229.707 225.917 235.443 239.913 244.02C253.91 252.597 266.079 263.847 275.728 277.127L174.601 350.6L73.4738 424.073Z" fill="#676767"/>
<path d="M354.137 512.391C338.525 517.464 322.067 519.412 305.702 518.124C289.338 516.836 273.387 512.337 258.761 504.885C244.135 497.433 231.12 487.172 220.459 474.69C209.798 462.208 201.7 447.748 196.628 432.136C191.555 416.524 189.607 400.066 190.895 383.702C192.183 367.337 196.682 351.386 204.134 336.76C211.586 322.134 221.846 309.119 234.329 298.458C246.811 287.798 261.271 279.7 276.883 274.627L315.51 393.509L354.137 512.391Z" fill="#676767"/>
<path d="M526 276C526 292.415 522.767 308.67 516.485 323.835C510.203 339.001 500.996 352.781 489.388 364.388C477.781 375.996 464.001 385.203 448.835 391.485C433.67 397.767 417.415 401 401 401C384.585 401 368.33 397.767 353.165 391.485C337.999 385.203 324.219 375.996 312.612 364.388C301.004 352.781 291.797 339.001 285.515 323.835C279.233 308.67 276 292.415 276 276L401 276H526Z" fill="#676767"/>
<path d="M402 276.5C402 259.924 395.415 244.027 383.694 232.306C371.973 220.585 356.076 214 339.5 214C322.924 214 307.027 220.585 295.306 232.306C283.585 244.027 277 259.924 277 276.5L339.5 276.5H402Z" fill="#676767"/>
<path d="M316.068 157.314C300.303 152.191 283.15 153.541 268.38 161.067C253.611 168.592 242.436 181.676 237.314 197.441C232.191 213.206 233.541 230.36 241.067 245.129C248.592 259.898 261.676 271.073 277.441 276.196L296.755 216.755L316.068 157.314Z" fill="#676767"/>
<path d="M174.736 202.564C164.993 215.974 160.976 232.705 163.569 249.077C166.163 265.449 175.153 280.121 188.563 289.864C201.974 299.607 218.705 303.624 235.077 301.031C251.449 298.438 266.12 289.447 275.864 276.037L225.3 239.3L174.736 202.564Z" fill="#676767"/>
<path d="M174.838 350.165C184.608 363.556 199.297 372.517 215.674 375.078C232.051 377.638 248.774 373.588 262.165 363.818C275.556 354.048 284.517 339.359 287.078 322.982C289.638 306.604 285.588 289.881 275.818 276.49L225.328 313.328L174.838 350.165Z" fill="#676767"/>
<path d="M314.465 393.278C330.209 388.092 343.249 376.865 350.715 362.066C358.181 347.267 359.463 330.108 354.278 314.363C349.092 298.619 337.865 285.58 323.066 278.113C308.266 270.647 291.107 269.366 275.363 274.551L294.914 333.914L314.465 393.278Z" fill="#676767"/>
<path d="M315.494 157.233C331.273 162.312 348.391 161.015 363.082 153.627C377.773 146.239 388.834 133.366 393.831 117.839C398.828 102.313 397.352 85.4049 389.729 70.835C382.105 56.2652 368.957 45.2268 353.178 40.1484L334.336 98.6909L315.494 157.233Z" fill="#D9D9D9"/>
<path d="M174.246 203.861C183.989 190.451 188.091 173.781 185.65 157.52C183.209 141.258 174.424 126.736 161.228 117.149C148.032 107.562 131.507 103.694 115.287 106.397C99.0663 109.101 84.4802 118.153 74.7371 131.564L124.492 167.712L174.246 203.861Z" fill="#D9D9D9"/>
<path d="M525 276C525 292.443 518.521 308.213 506.987 319.841C495.454 331.468 479.811 338 463.5 338C447.189 338 431.546 331.468 420.013 319.841C408.479 308.213 402 292.443 402 276L463.5 276H525Z" fill="#D9D9D9"/>
<path d="M353.45 510.294C337.685 515.416 320.564 514.166 305.852 506.819C291.141 499.472 280.045 486.63 275.004 471.117C269.964 455.605 271.393 438.693 278.976 424.102C286.559 409.511 299.676 398.436 315.441 393.314L334.445 451.804L353.45 510.294Z" fill="#D9D9D9"/>
<path d="M75.3549 422.861C65.6118 409.451 61.5097 392.781 63.951 376.52C66.3923 360.258 75.1772 345.736 88.3729 336.149C101.569 326.562 118.094 322.694 134.315 325.398C150.535 328.101 165.121 337.153 174.864 350.564L125.109 386.712L75.3549 422.861Z" fill="#D9D9D9"/>
</svg>
